<?xml version="1.0" encoding="UTF-8" standalone="no"?>
<svg>
   <g
      id="layer1">
      <g
         transform="translate(-5.0445313,-97.21151)"
         style="font-size:176.389px;line-height:1.25;font-family:Karumbi;-inkscape-font-specification:'Karumbi, Normal'"
         id="text835"
         aria-label="Amelio">
         <path
            className="name-path"
            id="path887"
            style="font-style:normal;font-variant:normal;font-weight:normal;font-stretch:normal;font-size:105.833px;font-family:Karumbi;-inkscape-font-specification:'Karumbi, Normal';font-variant-ligatures:normal;font-variant-caps:normal;font-variant-numeric:normal;font-variant-east-asian:normal"
            d="m 31.511471,125.45874 q 1.799161,7.83164 2.010827,11.64163 -0.211666,2.01083 -2.010827,2.22249 -0.740831,0 -1.481662,-0.52916 -0.634998,-0.42333 -0.846664,-2.32833 -0.423332,-4.55082 -1.587495,-9.41913 -5.714982,0.31749 -7.619976,1.16416 0.211666,1.16416 -0.846664,1.79916 -1.05833,0.635 -2.434159,0.10583 l -0.529165,-0.52916 q -1.164163,2.11666 -2.222493,4.23332 -1.05833,2.01082 -1.799161,3.28082 -0.634998,1.27 -0.634998,1.37583 l -0.105833,-0.10583 q -1.269996,1.48166 -2.2224934,0.95249 -1.799161,-0.95249 -1.481662,-2.75165 2.7516584,-6.13832 5.7149824,-12.06497 3.069157,-6.03248 4.762485,-9.9483 1.799161,-4.02165 2.539992,-5.82081 0.846664,-1.905 2.11666,-3.38666 -0.423332,-0.84666 0.211666,-1.79916 0.634998,-0.9525 2.010827,-1.16416 2.645825,0.52916 2.434159,2.85749 1.799161,3.17499 2.11666,6.34998 0.317499,3.17499 0.423332,5.18581 0.211666,2.01083 0.423332,3.28083 0.211666,1.58749 0.529165,3.17499 1.05833,0.95249 0.529165,2.22249 z m -12.594127,-1.48166 q 2.010827,-0.74083 7.725809,-1.05833 -0.105833,-0.3175 -0.105833,-0.635 0,-0.42333 -0.317499,-1.90499 -0.317499,-1.48167 -0.529165,-4.12749 -0.211666,-2.64583 -0.740831,-5.29165 -0.317499,0.52916 -0.634998,1.05833 -0.423332,0.42333 -1.05833,2.01083 -2.963324,7.09081 -4.339153,9.9483 z" />
         <path
            className="name-path"
            id="path889"
            style="font-style:normal;font-variant:normal;font-weight:normal;font-stretch:normal;font-size:105.833px;font-family:Karumbi;-inkscape-font-specification:'Karumbi, Normal';font-variant-ligatures:normal;font-variant-caps:normal;font-variant-numeric:normal;font-variant-east-asian:normal"
            d="m 64.012123,124.08291 -0.105833,3.38666 v 1.69333 q 0.317499,-0.635 0.634998,-1.27 0.317499,-0.74083 1.164163,-1.79916 0.952497,-1.16416 3.386656,-3.80999 2.434159,-2.64582 5.397483,-5.07998 7.302477,-5.92665 11.218298,-5.39749 4.021654,0.52917 6.032481,2.54 2.11666,2.01082 2.857491,4.86831 0.740831,2.75166 0.211666,5.92665 -0.529165,3.17499 -2.010827,6.03248 -3.386656,6.66748 -9.101638,7.83164 -2.11666,0.42334 -2.645825,-1.37582 -0.529165,-1.79917 1.481662,-2.64583 4.127487,-1.16416 6.561646,-6.03248 2.222493,-4.44499 1.375829,-8.67831 -1.269996,-6.98497 -9.313304,-2.53999 -5.079984,2.75166 -9.52497,7.83164 -2.539992,2.75166 -3.704155,5.18582 -1.05833,2.43416 -1.693328,3.70416 -1.587495,3.28082 -3.17499,4.55081 -1.269996,0.635 -2.328326,0.10584 -0.952497,-0.42333 -1.164163,-1.905 -0.529165,-4.33915 -0.105833,-8.78414 0.423332,-4.44498 0.211666,-8.78413 -2.328326,2.32832 -3.386656,5.39748 -1.05833,2.96332 -1.693328,6.03248 -0.634998,3.06916 -1.375829,6.03248 -0.740831,2.96332 -2.434159,5.18582 -2.328326,1.16416 -3.386656,-1.05833 -0.529165,-1.69333 -0.634998,-5.29165 -0.105833,-3.59832 -0.317499,-7.51415 -0.634998,-9.9483 -2.857491,-11.21829 -0.740831,-0.52917 -2.11666,0.3175 -1.375829,0.84666 -1.904994,0.95249 -0.529165,0.10584 -1.269996,-0.3175 -0.634998,-0.21166 -0.952497,-0.84666 -0.846664,-1.48166 0.846664,-2.75166 6.984978,-3.38665 9.948302,1.69333 1.269996,2.32833 1.693328,5.71498 0.529165,3.38666 0.740831,6.87915 0.952497,-3.38666 2.222493,-6.56165 1.375829,-3.17499 3.386656,-5.18582 2.010827,-2.11666 3.386656,-2.43416 1.375829,-0.31749 2.328326,0.3175 2.11666,1.48167 2.11666,5.60915 z" />
         <path
            className="name-path"
            id="path891"
            style="font-style:normal;font-variant:normal;font-weight:normal;font-stretch:normal;font-size:105.833px;font-family:Karumbi;-inkscape-font-specification:'Karumbi, Normal';font-variant-ligatures:normal;font-variant-caps:normal;font-variant-numeric:normal;font-variant-east-asian:normal"
            d="m 123.21576,112.33545 q 1.16417,0.84666 0.9525,3.06916 -0.10583,2.11666 -1.90499,4.02165 -1.69333,1.90499 -4.12749,3.06916 -3.38666,1.58749 -10.2658,2.53999 -5.71498,6.45581 -2.85749,8.88997 2.64582,2.43416 11.74746,1.16416 6.56165,-0.84666 12.06496,-2.64582 1.905,-0.21167 2.43416,1.48166 0.52917,1.5875 -1.26999,2.53999 -12.69996,3.59832 -21.27244,2.85749 -5.39748,-0.52916 -7.19664,-3.06915 -1.693328,-2.54 -0.9525,-6.03248 0.74083,-3.49249 3.38666,-7.19665 2.64582,-3.70415 6.03248,-6.56164 3.38666,-2.8575 6.98498,-4.12749 3.59832,-1.37583 6.24414,0 z m -3.80998,3.70415 q -1.905,0.42334 -6.24415,3.91582 4.23332,-1.26999 6.24415,-3.91582 z" />
         <path
            className="name-path"
            id="path893"
            style="font-style:normal;font-variant:normal;font-weight:normal;font-stretch:normal;font-size:105.833px;font-family:Karumbi;-inkscape-font-specification:'Karumbi, Normal';font-variant-ligatures:normal;font-variant-caps:normal;font-variant-numeric:normal;font-variant-east-asian:normal"
            d="m 129.67819,139.1112 q -0.42333,-1.48166 0.21167,-2.11666 0.52917,-0.74083 1.27,-0.84667 0.42333,-0.63499 1.05833,-1.69332 0.63499,-1.05833 1.26999,-2.11666 3.70416,-5.92665 6.98498,-11.74747 3.28082,-5.82081 6.34998,-10.68913 0.74083,-1.79916 1.5875,-3.06916 0.63499,-1.48166 1.05833,-2.85749 0.52916,-1.48166 1.26999,-2.85749 0.84667,-1.481662 2.22249,-1.164163 1.37583,0.211663 1.905,1.693333 -0.3175,3.06915 -2.53999,6.77331 -0.21167,0.52916 -0.52917,1.05833 -0.21166,0.52916 -0.635,1.26999 l -0.84666,1.69333 q -6.34998,12.69996 -5.92665,23.28326 0.21167,3.59832 1.37583,6.77331 0.74083,2.01083 -1.16416,2.85749 -1.79916,0.84667 -2.75166,-1.26999 -2.53999,-6.77331 -1.05833,-15.66329 -0.74083,1.37583 -2.22249,3.70416 -0.52917,0.84666 -1.16417,2.11666 -0.63499,1.27 -1.26999,2.53999 -1.69333,3.06916 -3.59832,3.70416 -2.01083,0.3175 -2.8575,-1.37583 z" />
         <path
            className="name-path"
            id="path895"
            style="font-style:normal;font-variant:normal;font-weight:normal;font-stretch:normal;font-size:105.833px;font-family:Karumbi;-inkscape-font-specification:'Karumbi, Normal';font-variant-ligatures:normal;font-variant-caps:normal;font-variant-numeric:normal;font-variant-east-asian:normal"
            d="m 163.93833,115.29877 q 0.95249,-1.79916 2.53999,-1.26999 1.69333,0.52916 1.48166,2.43416 -1.58749,5.71498 -2.75166,11.42996 -1.05833,5.60915 -2.64582,11.32413 -0.84667,2.01083 -2.64583,1.48166 -1.79916,-0.52916 -1.26999,-2.75166 0.52916,-2.11666 1.05833,-4.23332 0.63499,-2.22249 1.16416,-4.33915 v -0.10583 q 0.84666,-3.49249 1.37583,-6.98498 0.635,-3.59832 1.69333,-6.98498 z m 5.50331,-15.13412 q 1.79916,0.635 1.79916,2.2225 0,1.58749 -1.90499,2.01082 h -0.42333 q -1.16417,-0.10583 -1.69333,-0.74083 -0.42333,-0.635 -0.42333,-1.48166 0.10583,-1.79916 2.22249,-2.01083 z" />
         <path
            className="name-path"
            id="path897"
            style="font-style:normal;font-variant:normal;font-weight:normal;font-stretch:normal;font-size:105.833px;font-family:Karumbi;-inkscape-font-specification:'Karumbi, Normal';font-variant-ligatures:normal;font-variant-caps:normal;font-variant-numeric:normal;font-variant-east-asian:normal"
            d="m 173.64519,128.10457 q 0.635,-1.69333 1.48166,-3.80999 0.635,-2.2225 1.69333,-4.02166 2.43416,-4.76248 5.07998,-6.77331 l 0.3175,-0.635 q 5.60915,-4.86831 11.11247,-3.59832 2.53999,0.635 4.44498,2.43416 1.905,1.69333 2.75166,4.12749 2.11666,5.71498 -1.48166,12.17079 -2.32833,4.33916 -7.83164,6.98498 -4.02166,2.01083 -10.26581,2.75166 -3.49248,0.52916 -6.03248,-2.85749 -2.53999,-3.38666 -1.26999,-6.77331 z m 17.77994,1.79916 q 2.43416,-1.69333 4.02166,-3.91582 1.58749,-2.32833 1.58749,-5.92665 0,-3.59832 -1.90499,-5.39749 -1.905,-1.79916 -4.65666,-1.37582 -0.42333,1.26999 -1.79916,1.58749 -4.02165,0.52917 -7.30247,5.60915 -2.85749,4.44499 -3.59833,8.57247 -0.21166,0.84667 0.10584,1.69333 0.42333,0.74083 0.635,1.5875 0.63499,0.21166 1.26999,0.63499 0.635,0.3175 2.11666,0.42334 1.5875,0.10583 4.33915,-0.84667 2.8575,-0.9525 5.18582,-2.64582 z" />
      </g>
   </g>
</svg>
