<?xml version="1.0" encoding="UTF-8" standalone="no"?>
<svg  id="defs2" >

   <g id="layer1">
    <g
       style="font-style:normal;font-variant:normal;font-weight:normal;font-stretch:normal;font-size:70.5552px;line-height:1.25;font-family:Karumbi;-inkscape-font-specification:'Karumbi, Normal';font-variant-ligatures:normal;font-variant-caps:normal;font-variant-numeric:normal;font-variant-east-asian:normal;fill:none;fill-opacity:1;stroke:none;stroke-width:0.264583"
       id="text930"
       aria-label="Croza">
      <path
         className="name-path"
         id="path984"
         style="font-style:normal;font-variant:normal;font-weight:normal;font-stretch:normal;font-size:105.833px;font-family:Karumbi;-inkscape-font-specification:'Karumbi, Normal';font-variant-ligatures:normal;font-variant-caps:normal;font-variant-numeric:normal;font-variant-east-asian:normal"
         d="m 41.642589,35.196482 q 2.328326,0.529165 2.11666,2.222493 -0.105833,1.693328 -2.010827,2.11666 -1.904994,0.423332 -4.974151,0.846664 -3.069157,0.423332 -6.561646,0.740831 -3.492489,0.317499 -7.196644,0.423332 -3.704155,0 -6.984978,-0.529165 -7.4083098,-1.05833 -9.9483018,-4.656652 -2.434159,-3.598322 -2.222493,-7.619976 0.317499,-4.021654 2.539992,-7.831642 2.222493,-3.915821 5.8208148,-7.302477 3.598322,-3.386656 7.831642,-5.9266482 9.207471,-5.609149 15.980783,-5.397483 2.645825,0.740831 1.481662,3.17499 -1.375829,3.809988 -3.492489,3.17499 -1.269996,-0.423332 -1.587495,-1.693328 -5.29165,1.164163 -12.170795,5.8208152 -10.7949658,7.302477 -12.1707948,14.710787 -0.740831,3.915821 1.375829,6.244147 2.1166598,2.328326 6.0324808,3.069157 3.915821,0.740831 8.46664,0.634998 8.46664,-0.211666 16.404115,-1.904994 z" />
      <path
         className="name-path"
         id="path986"
         style="font-style:normal;font-variant:normal;font-weight:normal;font-stretch:normal;font-size:105.833px;font-family:Karumbi;-inkscape-font-specification:'Karumbi, Normal';font-variant-ligatures:normal;font-variant-caps:normal;font-variant-numeric:normal;font-variant-east-asian:normal"
         d="m 49.629673,15.829043 q -0.634998,-1.799161 0.211666,-2.539992 0.846664,-0.846664 1.481662,-0.846664 0.740831,0 1.587495,0.634998 2.222493,2.751658 2.11666,6.138314 -0.105833,3.386656 -0.317499,5.397483 -0.105833,2.010827 -0.211666,2.751658 0,0.634998 -0.105833,1.164163 l -0.317499,3.492489 q 4.23332,-6.138314 10.689133,-9.842469 6.455813,-3.704155 14.499121,-6.773312 1.904994,-0.211666 2.434159,1.481662 0.529165,1.587495 -1.269996,2.539992 -11.112465,4.23332 -15.769117,7.725809 -4.550819,3.492489 -7.196644,7.302477 -2.645825,3.704155 -4.23332,8.889972 -0.529165,1.269996 -2.010827,1.693328 h -0.211666 q -1.904994,-0.317499 -2.222493,-2.222493 0.105833,-2.645825 0.634998,-6.773312 0.529165,-4.127487 0.952497,-8.149141 1.05833,-9.948302 -0.740831,-12.064962 z" />
      <path
         className="name-path"
         id="path988"
         style="font-style:normal;font-variant:normal;font-weight:normal;font-stretch:normal;font-size:105.833px;font-family:Karumbi;-inkscape-font-specification:'Karumbi, Normal';font-variant-ligatures:normal;font-variant-caps:normal;font-variant-numeric:normal;font-variant-east-asian:normal"
         d="m 78.679175,26.624009 q 0.634998,-1.693328 1.481662,-3.809988 0.634998,-2.222493 1.693328,-4.021654 2.434159,-4.762485 5.079984,-6.773312 l 0.317499,-0.634998 q 5.609149,-4.8683182 11.112465,-3.5983222 2.539987,0.634998 4.444987,2.4341592 1.90499,1.693328 2.75166,4.127487 2.11666,5.714982 -1.48167,12.170795 -2.32832,4.339153 -7.831637,6.984978 -4.021654,2.010827 -10.265801,2.751658 -3.492489,0.529165 -6.032481,-2.857491 -2.539992,-3.386656 -1.269996,-6.773312 z m 17.779944,1.799161 q 2.434159,-1.693328 4.021651,-3.915821 1.5875,-2.328326 1.5875,-5.926648 0,-3.598322 -1.905,-5.397483 -1.90499,-1.799161 -4.656648,-1.375829 -0.423332,1.269996 -1.799161,1.587495 -4.021654,0.529165 -7.302477,5.609149 -2.857491,4.444986 -3.598322,8.572473 -0.211666,0.846664 0.105833,1.693328 0.423332,0.740831 0.634998,1.587495 0.634998,0.211666 1.269996,0.634998 0.634998,0.317499 2.11666,0.423332 1.587495,0.105833 4.339153,-0.846664 2.857491,-0.952497 5.185817,-2.645825 z" />
      <path
         className="name-path"
         id="path990"
         style="font-style:normal;font-variant:normal;font-weight:normal;font-stretch:normal;font-size:105.833px;font-family:Karumbi;-inkscape-font-specification:'Karumbi, Normal';font-variant-ligatures:normal;font-variant-caps:normal;font-variant-numeric:normal;font-variant-east-asian:normal"
         d="m 112.93103,23.13152 q -1.69332,0.846664 -2.75165,-0.211666 -1.16417,-1.164163 -0.3175,-2.857491 0.95249,-0.846664 3.38665,-2.328326 2.53999,-1.481662 5.07999,-2.328326 6.66748,-2.328326 7.30247,2.539992 0.21167,1.481662 -0.63499,2.963324 -0.84667,1.481662 -1.905,2.963324 -0.9525,1.375829 -1.79916,2.751658 -0.84666,1.375829 -0.635,3.280823 0.21167,1.799161 1.69333,3.915821 1.48166,2.11666 2.11666,3.386656 0.74083,1.269996 0.84666,1.587495 0.21167,0.423332 0.42334,0.846664 11.32413,-5.609149 27.30491,-11.218298 1.90499,-0.211666 2.43416,1.481662 0.52916,1.587495 -1.27,2.539992 -19.04994,6.561646 -27.19908,11.324131 0.84667,6.879145 -5.18581,11.959129 -1.37583,1.164163 -3.28083,1.269996 -1.79916,0.105833 -3.38665,-0.634998 -1.5875,-0.740831 -2.43416,-2.328326 -0.84667,-1.481662 -0.21167,-3.17499 0.635,-1.587495 1.37583,-2.434159 0.84666,-0.846664 1.90499,-1.904994 1.905,-2.11666 6.56165,-4.974151 -0.74083,-1.587495 -1.90499,-3.17499 -1.05833,-1.587495 -2.11666,-3.280823 -3.38666,-5.926648 -0.42334,-10.371634 2.64583,-3.809988 3.28083,-5.714982 -1.16417,-0.317499 -1.69333,0.211666 -3.59832,1.05833 -6.56165,3.915821 z m 4.02166,28.680743 0.10583,0.846664 q 1.90499,0.846664 3.80999,-1.904994 1.48166,-2.11666 2.22249,-4.444986 -3.80999,2.539992 -6.13831,5.503316 z" />
      <path
         className="name-path"
         id="path992"
         style="font-style:normal;font-variant:normal;font-weight:normal;font-stretch:normal;font-size:105.833px;font-family:Karumbi;-inkscape-font-specification:'Karumbi, Normal';font-variant-ligatures:normal;font-variant-caps:normal;font-variant-numeric:normal;font-variant-east-asian:normal"
         d="m 151.33849,26.729842 q 0.84666,-1.693328 2.01083,-3.17499 1.26999,-1.481662 4.33915,-4.444986 3.17499,-2.963324 5.71498,-4.550819 2.64583,-1.587495 3.91582,-1.693328 1.27,-0.105833 2.11666,0.423332 1.79916,1.164163 1.05833,3.492489 0.74083,-0.529165 1.37583,-0.952497 0.635,-0.529165 1.5875,-0.634998 1.05833,-0.211666 1.79916,0.529165 0.74083,0.634998 0.52916,1.904994 -1.05833,3.915821 -2.22249,7.090811 -1.05833,3.17499 -0.635,5.185817 0.42333,2.010827 3.06916,2.539992 2.64582,0.423332 9.20747,-1.05833 1.05833,-0.105833 1.69333,0.423332 0.635,0.529165 0.74083,1.269996 0.10583,0.740831 -0.42333,1.481662 -0.42334,0.740831 -1.905,1.164163 -3.80999,0.952497 -7.61997,0.952497 -3.70416,0.105833 -5.71499,-1.05833 -1.90499,-1.05833 -2.75165,-2.857491 -1.27,-2.857491 0.3175,-8.784139 -1.5875,1.587495 -3.80999,4.021654 -2.2225,2.434159 -3.17499,3.386656 -0.9525,0.846664 -1.79916,1.587495 -0.74083,0.634998 -2.64583,1.164163 -1.79916,0.529165 -3.59832,0.423332 -1.69333,-0.105833 -2.96332,-1.164163 -1.27,-1.05833 -1.16417,-2.963324 0.10584,-2.010827 0.9525,-3.704155 z m 14.49912,-6.455813 q -1.16416,-0.105833 -1.79916,-0.952497 -2.64583,2.11666 -5.50332,4.868318 -2.85749,2.645825 -3.80998,5.926648 4.23332,1.164163 9.73663,-6.455813 1.48166,-2.11666 3.06916,-3.809988 -0.635,0.211666 -1.69333,0.423332 z" />
    </g>
  </g>
</svg>
