<?xml version="1.0" encoding="UTF-8" standalone="no"?>
<svg>
  <g>
    <g
       style="font-size:105.833px;line-height:1.25;font-family:Karumbi;-inkscape-font-specification:'Karumbi, Normal';stroke-width:0.264583"
       id="text846"
       aria-label="React-Algo">
      <path
         id="path866"
         style="font-style:normal;font-variant:normal;font-weight:normal;font-stretch:normal;font-size:70.5556px;font-family:'Comic Sans MS';-inkscape-font-specification:'Comic Sans MS, Normal';font-variant-ligatures:normal;font-variant-caps:normal;font-variant-numeric:normal;font-variant-east-asian:normal;stroke-width:0.264583"
         d="m 36.809599,57.413934 q -1.309137,0 -2.446019,-1.102431 Q 22.960306,45.046033 9.0076598,41.153072 l 0.2756078,6.752392 0.1722549,6.786843 q 0,1.515843 -0.9990783,2.514921 -0.9646274,1.033529 -2.4460195,1.033529 -1.481392,0 -2.4804704,-1.033529 -0.9646274,-0.999078 -0.9646274,-2.514921 0,-2.721628 -0.2756078,-8.09598 -0.2411568,-5.408804 -0.2411568,-8.130431 0,-3.16949 0.6890195,-9.439568 0.6890196,-6.270078 0.6890196,-9.405117 0,-1.757 -0.3445098,-5.202098 -0.3100588,-3.445097 -0.3100588,-5.2020974 0,-1.9637057 1.1024313,-3.4450978 Q 5.1836013,3.946016 7.4918168,4.1182709 l 8.3026852,0.6545686 q 4.719784,0.5856666 7.958176,2.3082155 13.952647,7.40696 13.952647,18.086763 0,5.236549 -4.754235,9.267314 -3.824059,3.238391 -9.542921,4.926489 10.714254,5.753314 16.019704,12.126745 0.895726,1.102431 0.895726,2.342666 0,1.446941 -1.06798,2.514922 -1.03353,1.06798 -2.44602,1.06798 z M 14.864326,11.869741 9.7655813,11.456329 10.110091,15.624898 q 0.241157,2.549372 0.241157,4.168568 0,2.756078 -0.4478627,6.855745 l -0.7234706,6.855744 q 0.4823137,0 1.4813923,0.03445 1.033529,0.03445 1.550294,0.03445 8.784999,0 13.160273,-2.342666 1.929255,-1.067981 3.582902,-2.79053 1.825902,-1.929254 1.825902,-3.272843 0,-4.788685 -5.443255,-8.922803 -4.995391,-3.789607 -10.473097,-4.375274 z" />
      <path
         id="path868"
         style="font-style:normal;font-variant:normal;font-weight:normal;font-stretch:normal;font-size:70.5556px;font-family:'Comic Sans MS';-inkscape-font-specification:'Comic Sans MS, Normal';font-variant-ligatures:normal;font-variant-caps:normal;font-variant-numeric:normal;font-variant-east-asian:normal;stroke-width:0.264583"
         d="m 63.26795,58.619718 q -7.785921,0 -12.609057,-3.89296 -5.271,-4.306373 -5.271,-12.057843 0,-8.957254 4.340823,-15.020626 4.719784,-6.614588 12.609058,-6.614588 5.718862,0 9.336215,1.929255 4.444176,2.377117 4.444176,7.303607 0,3.445098 -3.89296,6.270078 -1.722549,1.240235 -7.303608,3.85851 l -13.160273,6.235627 q 1.929255,2.859431 4.788686,4.306372 2.893882,1.446941 6.71794,1.446941 2.377118,0 5.581059,-0.895725 4.065215,-1.136883 5.236549,-2.962784 1.171333,-1.860353 2.514921,-1.860353 1.205784,0 2.135961,0.930176 0.964627,0.895726 0.964627,2.10151 0,3.824058 -6.166725,6.580137 -5.271,2.342666 -10.266392,2.342666 z M 62.337774,27.234877 q -4.203019,0 -6.993548,3.272843 -2.79053,3.238392 -4.168569,9.784078 l 10.57645,-5.029843 q 6.235627,-3.031686 8.888353,-5.271 -2.962784,-2.756078 -8.302686,-2.756078 z" />
      <path
         id="path870"
         style="font-style:normal;font-variant:normal;font-weight:normal;font-stretch:normal;font-size:70.5556px;font-family:'Comic Sans MS';-inkscape-font-specification:'Comic Sans MS, Normal';font-variant-ligatures:normal;font-variant-caps:normal;font-variant-numeric:normal;font-variant-east-asian:normal;stroke-width:0.264583"
         d="m 112.80846,59.308738 q -0.65457,0 -2.37712,-1.515843 -1.55029,-1.41249 -2.30821,-2.514922 -3.3073,1.791451 -5.82222,2.687177 -2.514918,0.930176 -4.203016,0.930176 -8.061529,0 -11.747783,-4.547529 -3.479549,-4.271921 -3.479549,-13.091372 0,-8.337136 5.718862,-14.262705 5.753314,-5.925568 13.711486,-5.925568 2.99724,0 6.71794,1.550294 4.68534,1.929255 4.68534,4.650882 0,0.930177 -0.68902,1.653647 -0.34451,1.309137 -0.55122,4.306372 -0.17225,2.997235 -0.2067,7.682568 -0.0344,4.271922 0.58566,6.752392 0.34451,1.515843 2.17041,6.063372 0.24116,0.620118 0.79238,1.825902 l 0.2067,0.585667 q 0,1.378039 -0.96462,2.273764 -0.96463,0.895726 -2.23932,0.895726 z m -7.1658,-23.94343 q 0,-1.481392 0.17225,-3.203941 0.20671,-1.757 0.58567,-3.720706 -1.27469,-0.654568 -2.20486,-0.964627 -0.89573,-0.310059 -1.44694,-0.310059 -5.339905,0 -9.232866,4.375274 -3.858509,4.340824 -3.858509,10.025235 0,5.64996 1.998156,8.474941 1.998157,2.82498 5.99447,2.82498 3.307299,0 5.615509,-1.205784 1.24024,-0.654569 3.47955,-2.618275 -1.10243,-9.129509 -1.10243,-13.677038 z" />
      <path
         id="path872"
         style="font-style:normal;font-variant:normal;font-weight:normal;font-stretch:normal;font-size:70.5556px;font-family:'Comic Sans MS';-inkscape-font-specification:'Comic Sans MS, Normal';font-variant-ligatures:normal;font-variant-caps:normal;font-variant-numeric:normal;font-variant-east-asian:normal;stroke-width:0.264583"
         d="m 137.57871,59.205385 q -7.06245,0 -11.78223,-4.271922 -4.96094,-4.478627 -4.96094,-11.816685 0,-6.993549 4.65088,-14.43496 5.16765,-8.268235 11.64443,-8.268235 3.3762,0 7.54476,1.584745 5.271,2.032608 5.271,4.960941 0,1.309137 -0.86127,2.342667 -0.86128,0.999078 -2.13596,0.999078 -0.99908,0 -1.757,-0.585666 -0.72347,-0.620118 -1.41249,-1.205785 -2.03261,-1.619196 -6.64904,-1.619196 -3.514,0 -6.9591,6.270078 -3.13504,5.753314 -3.13504,9.956333 0,4.547529 3.10059,7.165803 2.89388,2.44602 7.44141,2.44602 2.06706,0 4.40973,-1.102431 l 3.99631,-2.135961 q 1.03353,-0.551216 1.48139,-0.551216 1.27469,0 2.20487,1.03353 0.93017,0.999078 0.93017,2.308215 0,2.514922 -5.30545,4.857588 -4.65088,2.067059 -7.71702,2.067059 z" />
      <path
         id="path874"
         style="font-style:normal;font-variant:normal;font-weight:normal;font-stretch:normal;font-size:70.5556px;font-family:'Comic Sans MS';-inkscape-font-specification:'Comic Sans MS, Normal';font-variant-ligatures:normal;font-variant-caps:normal;font-variant-numeric:normal;font-variant-east-asian:normal;stroke-width:0.264583"
         d="m 181.297,27.68274 q -0.72347,0 -1.72255,-0.0689 -0.96463,-0.0689 -1.6881,-0.0689 -0.79237,0 -4.68533,0.516765 l 0.65457,20.360528 0.0344,1.515843 0.0344,1.757 q 0.1378,7.544764 -3.61735,7.544764 -1.37804,0 -2.41157,-0.895726 -0.99908,-0.895725 -0.99908,-2.239313 0,-1.309137 0.10335,-3.927412 0.10336,-2.618274 0.10336,-3.927411 l -0.68902,-20.119371 q -2.51493,-0.103353 -7.64812,-0.585667 -3.06614,-0.413412 -3.06614,-3.410647 0,-1.515843 0.93018,-2.514921 0.93017,-0.999079 2.37712,-0.999079 l 7.2347,0.585667 q 0,-1.757 -0.17225,-4.685333 -0.13781,-2.962784 -0.13781,-4.271921 0,-1.446941 0.99908,-2.3771178 0.99908,-0.9646274 2.44602,-0.9646274 3.10059,0 3.61735,5.0642942 0.10336,1.274686 0.10336,3.066137 l -0.0689,1.998156 -0.0344,2.135961 q 4.27192,-0.551216 4.89204,-0.551216 3.5829,0 4.68533,0.34451 2.10151,0.68902 2.10151,3.238392 0,1.515843 -0.96462,2.514921 -0.93018,0.964628 -2.41157,0.964628 z" />
      <path
         id="path876"
         style="font-style:normal;font-variant:normal;font-weight:normal;font-stretch:normal;font-size:70.5556px;font-family:'Comic Sans MS';-inkscape-font-specification:'Comic Sans MS, Normal';font-variant-ligatures:normal;font-variant-caps:normal;font-variant-numeric:normal;font-variant-east-asian:normal;stroke-width:0.264583"
         d="m 210.06358,40.670759 q -4.68534,0.482313 -16.67428,0.482313 -2.89388,0 -2.89388,-2.687176 0,-2.687176 2.89388,-2.687176 2.72163,0 8.16488,-0.241157 5.44326,-0.241157 8.16489,-0.241157 3.06613,0 3.06613,2.687176 0,2.377118 -2.72162,2.687177 z" />
      <path
         id="path878"
         style="font-style:normal;font-variant:normal;font-weight:normal;font-stretch:normal;font-size:70.5556px;font-family:'Comic Sans MS';-inkscape-font-specification:'Comic Sans MS, Normal';font-variant-ligatures:normal;font-variant-caps:normal;font-variant-numeric:normal;font-variant-east-asian:normal;stroke-width:0.264583"
         d="m 259.08732,58.068502 q -3.16949,0 -5.51216,-8.13043 -0.89572,-3.100588 -2.23931,-10.852058 -3.514,0.482313 -9.19841,1.722548 l -9.16396,1.894804 q -1.72255,4.513078 -5.89112,13.194725 -1.10243,1.929255 -2.99723,1.929255 -1.37804,0 -2.48048,-0.999079 -1.06798,-0.999078 -1.06798,-2.48047 0,-1.653647 5.2021,-12.574607 -0.58566,-0.895726 -0.58566,-2.067059 0,-2.790529 3.37619,-3.582902 3.92741,-7.372509 9.92188,-16.949881 8.16488,-13.0569204 10.16304,-13.0569204 2.72163,0 3.72071,3.7896076 l 2.17041,11.5755288 5.13319,23.94343 1.96371,5.443254 q 0.99908,2.790529 0.99908,3.720706 0,1.481392 -1.06798,2.48047 -1.06798,0.999078 -2.44602,0.999078 z m -12.1612,-39.377467 -9.85298,15.8819 q 4.16857,-1.06798 12.64351,-2.583823 z" />
      <path
         id="path880"
         style="font-style:normal;font-variant:normal;font-weight:normal;font-stretch:normal;font-size:70.5556px;font-family:'Comic Sans MS';-inkscape-font-specification:'Comic Sans MS, Normal';font-variant-ligatures:normal;font-variant-caps:normal;font-variant-numeric:normal;font-variant-east-asian:normal;stroke-width:0.264583"
         d="m 281.23928,29.956504 -0.51676,17.122136 q 0,2.721628 -0.27561,7.992627 -0.34451,3.445098 -3.3762,3.445098 -3.37619,0 -3.37619,-3.514 0,-4.168568 0.37896,-12.505705 0.37896,-8.371587 0.37896,-12.540156 0,-5.443254 0.17226,-12.436803 0.17225,-7.027999 0.17225,-12.4712537 0,-3.4450978 3.3762,-3.4450978 3.41064,0 3.41064,3.4450978 0,5.4432547 -0.17225,12.4712537 -0.17226,6.993549 -0.17226,12.436803 z" />
      <path
         id="path882"
         style="font-style:normal;font-variant:normal;font-weight:normal;font-stretch:normal;font-size:70.5556px;font-family:'Comic Sans MS';-inkscape-font-specification:'Comic Sans MS, Normal';font-variant-ligatures:normal;font-variant-caps:normal;font-variant-numeric:normal;font-variant-east-asian:normal;stroke-width:0.264583"
         d="m 320.13443,42.186602 -0.79237,11.575528 q -0.20671,6.890196 -1.41249,11.26547 -1.5503,5.581058 -4.96094,8.233784 -4.13412,3.203941 -11.95449,3.203941 -4.58198,0 -7.68257,-0.620118 -4.34082,-0.861274 -4.34082,-3.582902 0,-3.066137 2.99723,-3.066137 1.24024,0 4.13412,0.585667 2.89388,0.620118 6.40788,0.551216 6.61459,-0.103353 9.12951,-6.407882 1.65365,-4.20302 1.757,-12.919117 -1.86035,3.445098 -4.44418,5.167647 -2.54937,1.722549 -5.85666,1.722549 -6.23563,0 -10.16304,-4.237471 -3.89296,-4.271921 -3.89296,-11.058764 0,-9.301764 5.3399,-14.986175 5.51216,-5.856666 15.02063,-5.856666 3.20394,0 5.37435,0.826823 2.17041,0.826824 3.30729,2.480471 3.68626,0.103352 3.68626,4.099666 0,2.446019 -0.72347,6.545686 -0.79237,4.754235 -0.93018,6.476784 z M 309.07567,27.269328 q -6.54569,0 -10.12859,4.513078 -3.20394,4.065216 -3.20394,10.335294 0,4.995391 1.8948,7.510313 1.89481,2.514921 5.68441,2.514921 3.47955,0 6.7524,-3.927411 2.96278,-3.617353 3.37619,-7.165804 0.72347,-3.720705 1.5503,-11.678881 -1.37804,-1.067981 -2.85944,-1.584745 -1.48139,-0.516765 -3.06613,-0.516765 z" />
      <path
         id="path884"
         style="font-style:normal;font-variant:normal;font-weight:normal;font-stretch:normal;font-size:70.5556px;font-family:'Comic Sans MS';-inkscape-font-specification:'Comic Sans MS, Normal';font-variant-ligatures:normal;font-variant-caps:normal;font-variant-numeric:normal;font-variant-east-asian:normal;stroke-width:0.264583"
         d="m 342.18306,59.067581 q -5.78777,0 -9.95633,-4.271921 -4.65089,-4.754235 -4.89204,-12.781313 -0.20671,-7.785921 3.92741,-13.71149 4.82314,-6.993548 13.43588,-6.993548 6.8902,0 10.43865,6.304529 2.82498,5.098745 2.72162,12.264548 -0.10335,7.648117 -3.99631,13.056921 -4.40972,6.132274 -11.67888,6.132274 z m 2.06706,-30.764724 q -5.0643,-0.03445 -7.88928,4.823137 -2.23931,3.892961 -2.23931,8.888353 0,4.995392 2.72163,7.785921 2.27376,2.308215 5.3399,2.308215 3.5829,0 6.16672,-2.618274 2.92834,-2.893882 3.10059,-7.820372 0.48232,-13.332529 -7.20025,-13.36698 z" />
    </g>
  </g>
</svg>
